<svg version="1.1" xmlns="http://www.w3.org/2000/svg" viewBox="-259.07199783325194 -1704.960009765625 7104.512353515624 2918.4"><desc>Created with Snap</desc><defs></defs><g><rect x="-259.07199783325194" y="-1704.960009765625" width="7104.512353515624" height="2918.4" style="" fill="#d90429"></rect><g transform="matrix(72,0,0,72,4234.2404,-1396.608)"><g display="none"><rect x="-331.365" y="-102.667" display="inline" fill="#ffffff" width="473.333" height="236" style=""></rect></g><g display="none"><g display="inline"><g><path d="M30,1.984v28H2v-28H30 M32-0.016H0v32h32V-0.016L32-0.016z" style="" fill="#ffffff"></path></g></g><g display="inline"><g><polygon fill="#ffffff" points="10.918,9.09 15.398,16.831 6.439,16.831    " style=""></polygon></g><g><polygon fill="#ffffff" points="21.082,5.59 25.561,13.331 16.602,13.331    " style=""></polygon></g><g><polygon fill="#ffffff" points="10.918,18.669 15.398,26.41 6.439,26.41    " style=""></polygon></g><g><polygon points="21.082,15.169 25.561,22.91 16.602,22.91    " style="" fill="#ffffff"></polygon></g></g></g><g display="none"><g display="inline"><path fill="#ffffff" d="M31,0.984v30H1v-30H31 M32-0.016H0v32h32V-0.016L32-0.016z" style=""></path></g><g display="inline"><path fill="#ffffff" d="M10.918,11.087l2.745,4.744h-5.49L10.918,11.087 M10.918,9.09l-4.479,7.741h8.958L10.918,9.09L10.918,9.09    z" style=""></path></g><g display="inline"><path fill="#ffffff" d="M21.082,7.587l2.745,4.744h-5.49L21.082,7.587 M21.082,5.59l-4.479,7.741h8.958L21.082,5.59L21.082,5.59z" style=""></path></g><g display="inline"><path fill="#ffffff" d="M10.918,20.666l2.745,4.744h-5.49L10.918,20.666 M10.918,18.669L6.439,26.41h8.958L10.918,18.669    L10.918,18.669z" style=""></path></g><g display="inline"><path fill="#ffffff" d="M21.082,17.166l2.745,4.744h-5.49L21.082,17.166 M21.082,15.169l-4.479,7.741h8.958L21.082,15.169    L21.082,15.169z" style=""></path></g></g><g display="none"><g display="inline"><g><rect x="0.5" y="0.484" fill="#ffffff" width="31" height="31" style=""></rect></g><g><g><path d="M31,0.984v30H1v-30H31 M32-0.016H0v32h32V-0.016L32-0.016z" style="" fill="#ffffff"></path></g></g></g><g display="inline"><g><polygon fill="#ffffff" points="7.307,16.331 10.918,10.088 14.53,16.331    " style=""></polygon></g><g><g><path d="M10.918,11.087l2.745,4.744h-5.49L10.918,11.087 M10.918,9.09l-4.479,7.741h8.958L10.918,9.09L10.918,9.09z" style="" fill="#ffffff"></path></g></g></g><g display="inline"><g><polygon fill="#ffffff" points="17.47,12.831 21.082,6.588 24.693,12.831    " style=""></polygon></g><g><path d="M21.082,7.587l2.745,4.744h-5.49L21.082,7.587 M21.082,5.59l-4.479,7.741h8.958L21.082,5.59L21.082,5.59z" style="" fill="#ffffff"></path></g></g><g display="inline"><g><polygon fill="#ffffff" points="7.307,25.91 10.918,19.667 14.53,25.91    " style=""></polygon></g><g><g><path d="M10.918,20.666l2.745,4.744h-5.49L10.918,20.666 M10.918,18.669L6.439,26.41h8.958L10.918,18.669L10.918,18.669z" style="" fill="#ffffff"></path></g></g></g><g display="inline"><g><polygon fill="#ffffff" points="17.47,22.41 21.082,16.167 24.693,22.41    " style=""></polygon></g><g><path d="M21.082,17.166l2.745,4.744h-5.49L21.082,17.166 M21.082,15.169l-4.479,7.741h8.958L21.082,15.169L21.082,15.169z" style="" fill="#ffffff"></path></g></g></g><g><g><path d="M0,31.984h32v-32H0V31.984z M2,1.984h28v28H2V1.984z" style="" fill="#ffffff"></path><polygon points="6.439,16.831 15.398,16.831 10.918,9.09   " style="" fill="#ffffff"></polygon><polygon points="16.602,13.331 25.561,13.331 21.082,5.59   " style="" fill="#ffffff"></polygon><polygon points="6.439,26.41 15.398,26.41 10.918,18.669   " style="" fill="#ffffff"></polygon><polygon points="16.602,22.91 25.561,22.91 21.082,15.169   " style="" fill="#ffffff"></polygon></g></g><desc>Created with Snap</desc><defs></defs></g><g><g transform="matrix(1.024,0,0,-1.024,0,0)"><path d="M271 -9Q208 -9 158 12Q108 34 79 72Q50 111 47 161L141 161Q145 120 179 94Q214 68 270 68Q322 68 352 91Q382 114 382 149Q382 185 350 202Q318 220 251 237Q190 253 151 269Q113 286 85 318Q58 351 58 404Q58 446 83 481Q108 516 154 536Q200 557 259 557Q350 557 406 511Q462 465 466 385L375 385Q372 428 340 454Q309 480 256 480Q207 480 178 459Q149 438 149 404Q149 377 166 359Q184 342 210 331Q237 321 284 308Q343 292 380 276Q417 261 443 230Q470 199 471 149Q471 104 446 68Q421 32 375 11Q330 -9 271 -9ZM871 558Q933 558 983 531Q1033 505 1061 452Q1090 399 1090 323L1090 0L1000 0L1000 310Q1000 392 959 435Q918 479 847 479Q775 479 732 434Q690 389 690 303L690 0L599 0L599 740L690 740L690 470Q717 512 764 535Q812 558 871 558ZM1478 -9Q1401 -9 1338 26Q1276 61 1240 125Q1205 190 1205 275Q1205 359 1241 423Q1278 488 1341 522Q1404 557 1482 557Q1560 557 1623 522Q1686 488 1722 424Q1759 360 1759 275Q1759 190 1721 125Q1684 61 1620 26Q1556 -9 1478 -9ZM1478 71Q1527 71 1570 94Q1613 117 1639 163Q1666 209 1666 275Q1666 341 1640 387Q1614 433 1572 455Q1530 478 1481 478Q1431 478 1389 455Q1348 433 1323 387Q1298 341 1298 275Q1298 208 1322 162Q1347 116 1388 93Q1429 71 1478 71ZM1970 447Q1997 494 2050 525Q2104 557 2175 557Q2248 557 2307 522Q2367 487 2401 423Q2435 360 2435 276Q2435 193 2401 128Q2367 63 2307 27Q2248 -9 2175 -9Q2105 -9 2051 22Q1998 54 1970 101L1970 -260L1879 -260L1879 548L1970 548L1970 447ZM2342 276Q2342 338 2317 384Q2292 430 2249 454Q2207 478 2156 478Q2106 478 2063 453Q2021 429 1995 382Q1970 336 1970 275Q1970 213 1995 166Q2021 120 2063 95Q2106 71 2156 71Q2207 71 2249 95Q2292 120 2317 166Q2342 213 2342 276ZM2788 276Q2788 360 2822 423Q2856 487 2915 522Q2975 557 3048 557Q3120 557 3173 526Q3226 495 3252 448L3252 548L3344 548L3344 0L3252 0L3252 102Q3225 54 3171 22Q3118 -9 3047 -9Q2974 -9 2915 27Q2856 63 2822 128Q2788 193 2788 276ZM3252 275Q3252 337 3227 383Q3202 429 3159 453Q3117 478 3066 478Q3015 478 2973 454Q2931 430 2906 384Q2881 338 2881 276Q2881 213 2906 166Q2931 120 2973 95Q3015 71 3066 71Q3117 71 3159 95Q3202 120 3227 166Q3252 213 3252 275ZM3498 740L3589 740L3589 0L3498 0L3498 740ZM3744 740L3835 740L3835 0L3744 0L3744 740Z" style="" fill="#ffffff"></path></g></g></g></svg>